<?xml version="1.0" encoding="UTF-8" standalone="no"?>
<svg
   viewBox="0 0 384 512"
   version="1.1"
   id="svg28971"
   sodipodi:docname="file-dna.svg"
   inkscape:version="1.1.2 (0a00cf5339, 2022-02-04)"
   xmlns:inkscape="http://www.inkscape.org/namespaces/inkscape"
   xmlns:sodipodi="http://sodipodi.sourceforge.net/DTD/sodipodi-0.dtd"
   xmlns="http://www.w3.org/2000/svg"
   xmlns:svg="http://www.w3.org/2000/svg">
  <defs
     id="defs28975">
    <rect
       x="80.462184"
       y="172.52603"
       width="209.20924"
       height="237.37516"
       id="rect31412" />
  </defs>
  <sodipodi:namedview
     id="namedview28973"
     pagecolor="#ffffff"
     bordercolor="#666666"
     borderopacity="1.0"
     inkscape:pageshadow="2"
     inkscape:pageopacity="0.0"
     inkscape:pagecheckerboard="0"
     showgrid="false"
     inkscape:zoom="1.7011719"
     inkscape:cx="283.92193"
     inkscape:cy="244.53731"
     inkscape:window-width="1918"
     inkscape:window-height="1055"
     inkscape:window-x="0"
     inkscape:window-y="23"
     inkscape:window-maximized="1"
     inkscape:current-layer="svg28971" />
  <!--! Font Awesome Pro 6.4.2 by @fontawesome - https://fontawesome.com License - https://fontawesome.com/license (Commercial License) Copyright 2023 Fonticons, Inc. -->
  <path
     d="M320 464c8.8 0 16-7.2 16-16V160H256c-17.7 0-32-14.3-32-32V48H64c-8.8 0-16 7.2-16 16V448c0 8.8 7.2 16 16 16H320zM0 64C0 28.7 28.7 0 64 0H229.5c17 0 33.3 6.7 45.3 18.7l90.5 90.5c12 12 18.7 28.3 18.7 45.3V448c0 35.3-28.7 64-64 64H64c-35.3 0-64-28.7-64-64V64z"
     id="path28969" />
  <path
     d="m 260.31847,206.92376 c 6.08248,0 10.99658,5.53874 10.99658,12.39437 0,23.16197 -10.41239,41.63732 -23.84883,56.78168 -9.62201,10.84507 -21.47769,20.72183 -33.43647,29.97887 l -0.85911,0.65845 c -4.08935,3.13733 -8.17871,6.23592 -12.19933,9.25704 v 0 0 0 l -0.54983,0.38733 c -2.06186,1.54929 -4.08935,3.05986 -6.11685,4.60915 -7.18214,5.42254 -14.02063,10.72887 -20.37803,16.07394 h 40.79043 c -3.3677,-2.86619 -6.90722,-5.69366 -10.54984,-8.55985 l 2.4055,-1.82043 1.03093,-0.77464 c 5.18901,-3.91198 10.61857,-7.97888 16.04813,-12.23944 8.59108,7.01056 16.80415,14.44718 23.84883,22.34859 13.40208,15.1831 23.81447,33.65845 23.81447,56.82042 0,6.85563 -4.9141,12.39436 -10.99658,12.39436 -6.08248,0 -10.99658,-5.53873 -10.99658,-12.39436 H 139.35611 c 0,6.85563 -4.9141,12.39436 -10.99658,12.39436 -6.08249,0 -10.99658,-5.53873 -10.99658,-12.39436 0,-23.16197 10.41238,-41.63732 23.84883,-56.78169 9.622,-10.84507 21.47769,-20.72183 33.43647,-29.97887 -11.95878,-9.25704 -23.81447,-19.09507 -33.43647,-29.97887 -13.43645,-15.14436 -23.84883,-33.61971 -23.84883,-56.78168 0,-6.85563 4.91409,-12.39437 10.99658,-12.39437 6.08248,0 10.99658,5.53874 10.99658,12.39437 h 109.96578 c 0,-6.85563 4.9141,-12.39437 10.99658,-12.39437 z M 233.7205,355.65614 h -78.763 c -3.47079,4.10563 -6.39176,8.25 -8.7629,12.39437 h 96.2888 c -2.33678,-4.14437 -5.25774,-8.28874 -8.7629,-12.39437 z m -78.763,-99.15492 h 78.763 c 3.47079,-4.14436 6.39176,-8.25 8.7629,-12.39436 h -96.2888 c 2.33678,4.14436 5.25774,8.25 8.7629,12.39436 z m 19.03783,18.59155 c 6.32303,5.34507 13.19589,10.65141 20.37803,16.07394 7.18214,-5.42253 14.02064,-10.72887 20.37804,-16.07394 h -40.79044 z"
     id="path28673"
     style="stroke-width:0.36483" />
</svg>
