<?xml version="1.0" encoding="UTF-8" standalone="no"?>
<svg
   viewBox="0 0 384 512"
   version="1.1"
   id="svg28971"
   sodipodi:docname="file-utf-8.svg"
   inkscape:version="1.1.2 (0a00cf5339, 2022-02-04)"
   xmlns:inkscape="http://www.inkscape.org/namespaces/inkscape"
   xmlns:sodipodi="http://sodipodi.sourceforge.net/DTD/sodipodi-0.dtd"
   xmlns="http://www.w3.org/2000/svg"
   xmlns:svg="http://www.w3.org/2000/svg">
  <defs
     id="defs28975">
    <rect
       x="80.462184"
       y="172.52603"
       width="209.20924"
       height="237.37516"
       id="rect31412" />
  </defs>
  <sodipodi:namedview
     id="namedview28973"
     pagecolor="#ffffff"
     bordercolor="#666666"
     borderopacity="1.0"
     inkscape:pageshadow="2"
     inkscape:pageopacity="0.0"
     inkscape:pagecheckerboard="0"
     showgrid="false"
     inkscape:zoom="1.7011719"
     inkscape:cx="283.92193"
     inkscape:cy="244.53731"
     inkscape:window-width="1918"
     inkscape:window-height="1055"
     inkscape:window-x="0"
     inkscape:window-y="23"
     inkscape:window-maximized="1"
     inkscape:current-layer="svg28971" />
  <!--! Font Awesome Pro 6.4.2 by @fontawesome - https://fontawesome.com License - https://fontawesome.com/license (Commercial License) Copyright 2023 Fonticons, Inc. -->
  <path
     d="M320 464c8.8 0 16-7.2 16-16V160H256c-17.7 0-32-14.3-32-32V48H64c-8.8 0-16 7.2-16 16V448c0 8.8 7.2 16 16 16H320zM0 64C0 28.7 28.7 0 64 0H229.5c17 0 33.3 6.7 45.3 18.7l90.5 90.5c12 12 18.7 28.3 18.7 45.3V448c0 35.3-28.7 64-64 64H64c-35.3 0-64-28.7-64-64V64z"
     id="path28969" />
  <text
     xml:space="preserve"
     id="text31410"
     style="font-size:64px;line-height:1.25;font-family:sans-serif;letter-spacing:0px;word-spacing:0px;white-space:pre;shape-inside:url(#rect31412)"
     transform="translate(10.282984,193.20617)"><tspan
       x="80.462891"
       y="229.15039"
       id="tspan22">UTF-8</tspan></text>
  <rect
     style="fill:#000000;stroke-width:191.191"
     id="rect37663"
     width="176.53291"
     height="19.609339"
     x="96.354416"
     y="191.35899" />
  <rect
     style="fill:#000000;stroke-width:191.191"
     id="rect37663-9"
     width="176.53291"
     height="19.609339"
     x="96.354416"
     y="257.32434" />
  <rect
     style="fill:#000000;stroke-width:191.191"
     id="rect37663-9-0"
     width="176.53291"
     height="19.609339"
     x="96.354416"
     y="323.2897" />
</svg>
